<svg width="24" height="24" viewBox="0 0 24 24" fill="none" xmlns="http://www.w3.org/2000/svg">
<g clip-path="url(#clip0_14_2)">
<path d="M21 0H3C1.34315 0 0 1.34315 0 3V21C0 22.6569 1.34315 24 3 24H21C22.6569 24 24 22.6569 24 21V3C24 1.34315 22.6569 0 21 0Z" fill="#F2F2F2"/>
<path d="M12 18.69C10.92 18.69 9.89999 18.44 9.00999 17.98L11.43 14C11.67 14.06 11.83 14.08 11.99 14.08C12.91 14.08 13.66 13.49 13.98 12.49H18.6C18.34 15.98 15.55 18.69 12 18.69ZM10.96 12.02C10.96 11.45 11.44 11 11.99 11C12.56 11 13.04 11.45 13.04 12.02C13.04 12.59 12.57 13.05 11.99 13.05C11.45 13.06 10.96 12.59 10.96 12.02ZM5.39999 12C5.39999 9.71 6.47999 7.72 8.17999 6.51L10.57 10.59C10.15 11.01 9.92999 11.5 9.92999 12.03C9.92999 12.55 10.14 13.03 10.58 13.47L8.13999 17.47C6.46999 16.26 5.39999 14.27 5.39999 12ZM13.97 11.51C13.64 10.54 12.89 9.97 11.98 9.97C11.82 9.97 11.66 9.99 11.41 10.05L9.03999 5.99C9.92999 5.55 10.93 5.3 12 5.3C15.56 5.3 18.36 8.02 18.59 11.51H13.97ZM12 19.8C12.22 19.8 12.42 19.78 12.65 19.76L13.09 20.6C13.17 20.78 13.34 20.87 13.56 20.84C13.77 20.81 13.89 20.67 13.92 20.46L14.06 19.53C14.47 19.42 14.88 19.26 15.27 19.09L15.96 19.7C16.11 19.85 16.29 19.87 16.5 19.77C16.67 19.67 16.74 19.5 16.7 19.29L16.5 18.37C16.85 18.13 17.19 17.85 17.49 17.55L18.35 17.91C18.55 17.99 18.72 17.96 18.88 17.77C19.02 17.62 19.03 17.43 18.91 17.25L18.41 16.45C18.66 16.1 18.86 15.72 19.04 15.33L19.99 15.38C20.2 15.39 20.36 15.29 20.43 15.09C20.5 14.89 20.44 14.71 20.27 14.58L19.54 14C19.64 13.6 19.73 13.17 19.76 12.73L20.65 12.45C20.85 12.38 20.96 12.23 20.96 12.02C20.96 11.81 20.85 11.67 20.65 11.6L19.76 11.32C19.73 10.88 19.64 10.46 19.54 10.05L20.27 9.46C20.43 9.34 20.49 9.17 20.43 8.96C20.36 8.76 20.2 8.65 19.99 8.67L19.04 8.71C18.86 8.31 18.65 7.94 18.41 7.59L18.91 6.79C19.03 6.62 19.01 6.43 18.88 6.28C18.72 6.1 18.55 6.06 18.35 6.14L17.49 6.49C17.18 6.19 16.84 5.91 16.5 5.67L16.7 4.76C16.73 4.54 16.67 4.36 16.5 4.27C16.32 4.17 16.16 4.18 16.02 4.28L15.28 4.94C14.89 4.76 14.48 4.62 14.07 4.51L13.93 3.58C13.923 3.48384 13.8835 3.39292 13.8182 3.32208C13.7528 3.25124 13.6653 3.20468 13.57 3.19C13.35 3.16 13.18 3.24 13.1 3.41L12.66 4.25L12.23 4.23H12.01C11.79 4.23 11.59 4.24 11.36 4.26L10.92 3.42C10.84 3.25 10.67 3.17 10.44 3.2C10.24 3.23 10.11 3.37 10.08 3.59L9.94999 4.47C9.52999 4.59 9.11999 4.73 8.72999 4.91L8.03999 4.3C7.88999 4.15 7.70999 4.13 7.50999 4.24C7.32999 4.33 7.26999 4.5 7.30999 4.73L7.50999 5.64C7.14999 5.88 6.80999 6.16 6.50999 6.46L5.64999 6.11C5.45999 6.02 5.27999 6.06 5.12999 6.24C4.98999 6.39 4.96999 6.58 5.08999 6.75L5.58999 7.55C5.33999 7.9 5.13999 8.27 4.94999 8.67L4.00999 8.63C3.79999 8.62 3.63999 8.73 3.56999 8.93C3.49999 9.13 3.54999 9.31 3.72999 9.43L4.45999 10.02C4.35999 10.43 4.26999 10.85 4.23999 11.29L3.34999 11.58C3.13999 11.65 3.03999 11.79 3.03999 12C3.03999 12.22 3.13999 12.36 3.34999 12.43L4.23999 12.71C4.26999 13.15 4.33999 13.58 4.45999 13.98L3.72999 14.56C3.55999 14.68 3.50999 14.87 3.56999 15.07C3.63999 15.27 3.79999 15.38 4.00999 15.36L4.94999 15.31C5.12999 15.7 5.33999 16.08 5.57999 16.43L5.07999 17.23C4.95999 17.41 4.97999 17.6 5.11999 17.75C5.27999 17.93 5.44999 17.97 5.63999 17.89L6.49999 17.53C6.79999 17.84 7.13999 18.11 7.48999 18.35L7.28999 19.27C7.24999 19.49 7.31999 19.66 7.48999 19.76C7.68999 19.86 7.86999 19.84 8.02999 19.69L8.71999 19.08C9.10999 19.25 9.51999 19.41 9.92999 19.52L10.06 20.45C10.09 20.66 10.22 20.8 10.43 20.84C10.65 20.87 10.82 20.78 10.9 20.6L11.34 19.76C11.57 19.78 11.78 19.8 12 19.8Z" fill="#818B90"/>
</g>
<defs>
<clipPath id="clip0_14_2">
<rect width="24" height="24" fill="white"/>
</clipPath>
</defs>
</svg>
