<svg width="19" height="19" viewBox="0 0 19 19" fill="none" xmlns="http://www.w3.org/2000/svg">
<path d="M9.5 0C14.7467 0 19 4.25329 19 9.5C19 14.7467 14.7467 19 9.5 19C4.25329 19 0 14.7467 0 9.5C0 4.25329 4.25329 0 9.5 0ZM9.5 2C5.35786 2 2 5.35786 2 9.5C2 13.6421 5.35786 17 9.5 17C13.6421 17 17 13.6421 17 9.5C17 5.35786 13.6421 2 9.5 2ZM9.5 5.19238C10.0863 5.19244 10.5613 5.6491 10.5615 6.21387V8.47754H12.917C13.5046 8.47754 13.9805 8.9361 13.9805 9.5C13.9805 10.0639 13.5046 10.5225 12.917 10.5225H10.5615V12.7852C10.5615 13.3501 10.0864 13.8076 9.5 13.8076C8.91352 13.8076 8.43652 13.3502 8.43652 12.7852V10.5225H6.08301C5.49537 10.5225 5.01954 10.0639 5.01953 9.5C5.01953 8.9361 5.49536 8.47754 6.08301 8.47754H8.43652V6.21387C8.43679 5.64907 8.91369 5.19238 9.5 5.19238Z" fill="var(--primary-color)"/>
</svg>
