<svg width="20" height="20" viewBox="0 0 20 20" fill="currentColor" xmlns="http://www.w3.org/2000/svg">
<path d="M1.02623 0H18.9738C19.5407 0 20 0.464053 20 1.03688V5.95898C20 6.5313 19.5407 6.99535 18.9738 6.99535H18.5899V15.5343C18.5899 16.7633 18.0929 17.8805 17.2921 18.6892C16.4917 19.4978 15.3865 20 14.1701 20H5.82992C4.61353 20 3.50831 19.4978 2.70795 18.6892C1.90709 17.8805 1.41007 16.7633 1.41007 15.5343V6.99535H1.02623C0.45929 6.99535 0 6.5313 0 5.95898V1.03688C0 0.464053 0.45929 0 1.02623 0ZM17.9475 2.07375H2.05247V4.92211H17.9475V2.07375ZM16.5375 6.99535H3.46254V15.5343C3.46254 16.191 3.72916 16.7892 4.15876 17.2233C4.58837 17.6569 5.17997 17.9268 5.82992 17.9268H14.1701C14.82 17.9268 15.4116 17.6569 15.8412 17.2228C16.2708 16.7892 16.5375 16.191 16.5375 15.5343V6.99535ZM7.88037 10.7581C7.31343 10.7581 6.85414 10.2935 6.85414 9.72121C6.85414 9.14839 7.31343 8.68434 7.88037 8.68434H12.1196C12.6866 8.68434 13.1459 9.14839 13.1459 9.72121C13.1459 10.2935 12.6866 10.7581 12.1196 10.7581H7.88037Z" fill="currentColor"/>
</svg>
