<svg width="13" height="19" viewBox="0 0 13 19" fill="none" xmlns="http://www.w3.org/2000/svg">
<path fill-rule="evenodd" clip-rule="evenodd" d="M12.6055 10.6159C12.8183 10.9376 12.9602 11.3196 12.9602 11.7418V15.4212C12.9602 16.3862 12.7271 17.291 12.1697 17.9545C11.6327 18.6079 10.8625 19 9.78833 19H6.08956C5.57275 19 5.1066 18.8693 4.68099 18.6582C4.24525 18.437 3.8703 18.1254 3.56629 17.7534C3.26228 17.3815 2.42119 16.336 1.69157 15.4212C0.830217 14.3354 0.0397949 13.2095 0.0397949 12.9381C0.0397949 12.4656 0.323536 11.8624 0.789683 11.4603C1.15449 11.1487 1.64091 10.9175 2.21852 10.9175C2.5428 10.9175 3.03935 11.1487 3.57643 11.4905V5.36825C3.57643 5.0164 3.70816 4.69471 3.91084 4.44339C3.94124 4.40317 3.98177 4.36296 4.02231 4.32275C4.28578 4.05132 4.66072 3.88042 5.0762 3.88042H5.83622C6.1909 3.88042 6.51518 4.01111 6.76852 4.21217C6.81918 4.24233 6.85972 4.28254 6.90025 4.32275C7.16373 4.58413 7.336 4.95608 7.336 5.36825V9.12804C8.84591 9.31905 11.2476 9.63069 11.7239 9.86191C12.0583 10.0127 12.3825 10.2741 12.6055 10.6159ZM2.50226 8.87672H0.607277C0.293135 8.87672 0.0397949 8.6254 0.0397949 8.31376V0.562963C0.0397949 0.251323 0.293135 0 0.607277 0H10.3355C10.6497 0 10.903 0.251323 10.903 0.562963V8.31376C10.903 8.6254 10.6497 8.87672 10.3355 8.87672H8.44056C8.12642 8.87672 7.86295 8.6254 7.86295 8.31376V4.83545C7.86295 4.40317 7.69068 4.01111 7.3968 3.71958C7.11306 3.4381 6.70771 3.25714 6.27197 3.25714H4.67086C4.23511 3.25714 3.82977 3.4381 3.54603 3.71958C3.25215 4.01111 3.07988 4.40317 3.07988 4.83545H3.06975V8.31376C3.06975 8.6254 2.81641 8.87672 2.50226 8.87672ZM1.17476 7.75079H1.94491V4.83545H1.93478C1.93478 4.09153 2.24892 3.41799 2.74547 2.9254C3.24202 2.4328 3.92097 2.13122 4.67086 2.13122H6.27197C7.02186 2.13122 7.70081 2.4328 8.19736 2.9254C8.6939 3.41799 9.00805 4.09153 9.00805 4.83545V7.75079H9.76807V1.12593H1.17476V7.75079ZM11.8252 11.7418C11.8252 11.3296 11.5313 11.018 11.2374 10.8772C10.8118 10.6661 7.09279 10.2339 6.20103 10.1132V5.36825C6.20103 5.17725 6.0389 5.0164 5.83622 5.0164H5.0762C4.87353 5.0164 4.72153 5.17725 4.72153 5.36825V13.6418C3.8095 12.9884 2.47186 12.0434 2.21852 12.0434C1.61051 12.0434 1.18489 12.6164 1.18489 12.9381C1.18489 12.9582 3.9615 16.4566 4.44792 17.0497C4.83299 17.5222 5.40048 17.8741 6.08956 17.8741H9.78833C11.278 17.8741 11.8252 16.7783 11.8252 15.4212V11.7418Z" fill="currentColor"/>
</svg>
