<svg width="24" height="17" viewBox="0 0 24 17"  xmlns="http://www.w3.org/2000/svg">
    <g clip-path="url(#clip0_1004_29)">
        <path d="M9.56445 11.42C8.9776 11.42 8.50181 10.9626 8.50181 10.3983C8.50181 9.83402 8.9776 9.37653 9.56445 9.37653H15.548C16.1348 9.37653 16.6106 9.83402 16.6106 10.3983C16.6106 10.9626 16.1348 11.42 15.548 11.42H9.56445ZM1.46222 2.29283L0 0H1.84508H3.04585H6.9271H22.9374C23.5242 0 24 0.370164 24 0.934288V15.9784C24 16.5425 23.5242 17 22.9374 17H4.554C3.96729 17 3.49153 16.5425 3.49153 15.9784V5.67243L1.46222 2.29283ZM9.56445 7.2611C8.9776 7.2611 8.50181 6.80349 8.50181 6.23936C8.50181 5.67508 8.9776 5.21762 9.56445 5.21762H17.7828C18.3697 5.21762 18.8455 5.67508 18.8455 6.23936C18.8455 6.80349 18.3697 7.2611 17.7828 7.2611H9.56445ZM6.91882 1.95207L3.68094 1.91882L5.42046 4.81598C5.54399 4.9829 5.61667 5.18702 5.61667 5.40742V14.9567H21.8749V1.95605H6.9271V1.95207H6.91882Z" fill="currentColor"/>
    </g>
    <defs>
        <clipPath id="clip0_1004_29">
            <rect width="24" height="17" fill="white"/>
        </clipPath>
    </defs>
</svg>
