<svg width="14" height="16" viewBox="0 0 14 16" fill="none" xmlns="http://www.w3.org/2000/svg">
<path d="M7.00043 14.5501C7.48779 14.5501 7.95747 14.5244 8.40378 14.47C9.69769 14.3142 10.8035 13.9264 11.5684 13.2634C12.2946 12.634 12.7255 11.725 12.7255 10.4892C12.7255 10.4455 12.725 10.4023 12.7238 10.3581H1.27703C1.27589 10.4023 1.27532 10.4455 1.27532 10.4892C1.27532 11.725 1.70624 12.634 2.43243 13.2634C3.19737 13.9264 4.30318 14.3136 5.59766 14.47C6.04397 14.5244 6.51365 14.5501 7.00043 14.5501ZM8.58219 15.9092C8.07261 15.9703 7.54308 16 7.00043 16C6.45779 16 5.92883 15.9703 5.41925 15.9092C3.83977 15.7181 2.46036 15.2193 1.45886 14.3506C0.418034 13.4489 -0.19928 12.1806 -0.19928 10.4892C-0.19928 10.1961 -0.1799 9.88896 -0.140569 9.56727C-0.106939 9.19794 0.208843 8.90819 0.593595 8.90819H13.4078C13.7749 8.90819 14.0936 9.17776 14.1392 9.54541C14.1802 9.87495 14.2007 10.1894 14.2007 10.4892C14.2007 12.1806 13.5828 13.4489 12.542 14.3506C11.5405 15.2193 10.1611 15.7181 8.58219 15.9092ZM7.00043 0C8.12049 0 9.1351 0.446671 9.86926 1.16852C10.6029 1.89036 11.0571 2.88739 11.0571 3.98865C11.0571 5.08992 10.6029 6.08694 9.86926 6.80878C9.1351 7.53063 8.12049 7.9773 7.00043 7.9773C5.88038 7.9773 4.86634 7.53063 4.13218 6.80878C3.39801 6.08694 2.94372 5.08992 2.94372 3.98865C2.94372 2.88739 3.39801 1.89036 4.13218 1.16852C4.86634 0.446671 5.88038 0 7.00043 0ZM8.82616 2.19356C8.35932 1.734 7.71351 1.44986 7.00043 1.44986C6.28736 1.44986 5.64212 1.734 5.17471 2.19356C4.70788 2.65256 4.41889 3.28754 4.41889 3.98865C4.41889 4.68976 4.70788 5.32418 5.17471 5.78374C5.64212 6.24274 6.28736 6.52688 7.00043 6.52688C7.71351 6.52688 8.35932 6.24274 8.82616 5.78374C9.29356 5.32418 9.58255 4.68976 9.58255 3.98865C9.58255 3.28754 9.29356 2.65256 8.82616 2.19356Z" fill="currentColor"/>
</svg>
