<?xml version="1.0" encoding="UTF-8"?>
<!DOCTYPE svg PUBLIC "-//W3C//DTD SVG 1.1//EN" "http://www.w3.org/Graphics/SVG/1.1/DTD/svg11.dtd">
<!-- Creator: CorelDRAW -->
<svg xmlns="http://www.w3.org/2000/svg" xml:space="preserve" width="512px" height="512px" version="1.1" style="shape-rendering:geometricPrecision; text-rendering:geometricPrecision; image-rendering:optimizeQuality; fill-rule:evenodd; clip-rule:evenodd"
viewBox="0 0 512 512"
 xmlns:xlink="http://www.w3.org/1999/xlink"
 xmlns:xodm="http://www.corel.com/coreldraw/odm/2003">
 <defs>
  <style type="text/css">
   <![CDATA[
    .fil1 {fill:#4B4B4B}
    .fil3 {fill:#D10000}
    .fil0 {fill:#E0E0E0}
    .fil2 {fill:#D10000;fill-rule:nonzero}
   ]]>
  </style>
 </defs>
 <g id="Слой_x0020_1">
  <metadata id="CorelCorpID_0Corel-Layer"/>
  <g id="_2250222883744">
   <rect class="fil0" width="512" height="512"/>
   <circle class="fil1" cx="256" cy="166.634" r="90.148"/>
   <path class="fil1" d="M256 272.805c2.217,0.007 4.433,0.039 6.646,0.097 28.35,0.743 56.966,5.687 83.428,16.124 -32.483,10.674 -55.939,41.245 -55.939,77.301 0,29.216 15.405,54.831 38.532,69.178 -8.819,0.045 -16.952,-0.099 -23.683,-0.157 -16.34,-0.142 -32.647,-0.393 -48.984,-0.422 -16.337,0.029 -32.644,0.28 -48.984,0.422 -29.437,0.256 -85.652,2.159 -109.113,-17.403 -14.684,-12.244 -16.7,-31.085 -13.194,-48.898 6.258,-31.797 33.426,-56.018 60.854,-70.638 31.773,-16.935 67.994,-24.57 103.791,-25.507 2.213,-0.058 4.429,-0.09 6.646,-0.097z"/>
   <path class="fil2" d="M361.574 411.418c0,-2.816 0.913,-5.151 2.74,-7.003 1.852,-1.852 4.339,-2.766 7.511,-2.766 3.172,0 5.684,0.914 7.511,2.766 1.827,1.852 2.74,4.187 2.74,7.003 0,2.715 -0.888,4.999 -2.664,6.826 -1.776,1.827 -4.314,2.74 -7.587,2.74 -3.273,0 -5.785,-0.913 -7.587,-2.74 -1.776,-1.827 -2.664,-4.111 -2.664,-6.826zm1.82 -23.226l0 0 0 -0.001c-0.268,-0.049 -4.478,-61.602 -4.481,-67.436 -0.003,-4.628 3.262,-7.28 7.605,-8.419 1.329,-0.442 2.979,-0.711 4.972,-0.663 1.993,-0.048 3.643,0.221 4.972,0.663 4.342,1.139 7.608,3.791 7.605,8.419 -0.004,5.834 -4.214,67.387 -4.481,67.436l0 0.001 0 0c-0.045,0.893 -0.142,1.612 -0.423,2.465 -0.241,0.675 -0.589,1.342 -1.021,1.97 -0.985,1.549 -2.426,2.768 -4.202,3.424 -0.788,0.31 -1.615,0.484 -2.45,0.481 -0.835,0.003 -1.662,-0.171 -2.45,-0.481 -1.777,-0.656 -3.218,-1.875 -4.203,-3.424 -0.432,-0.628 -0.779,-1.295 -1.02,-1.97 -0.281,-0.853 -0.378,-1.572 -0.423,-2.465z"/>
   <path class="fil3" d="M371.491 291.932c41.085,0 74.392,33.307 74.392,74.394 0,41.086 -33.307,74.393 -74.392,74.393 -41.088,0 -74.395,-33.307 -74.395,-74.393 0,-41.087 33.307,-74.394 74.395,-74.394zm46.166 28.227c-11.814,-11.815 -28.137,-19.123 -46.166,-19.123 -18.031,0 -34.354,7.308 -46.168,19.123 -11.815,11.814 -19.122,28.137 -19.122,46.167 0,18.03 7.307,34.353 19.122,46.167 11.814,11.814 28.138,19.122 46.168,19.122 18.029,0 34.352,-7.308 46.166,-19.122 11.815,-11.814 19.122,-28.137 19.122,-46.167 0,-18.03 -7.308,-34.353 -19.122,-46.167z"/>
  </g>
 </g>
</svg>
