<?xml version="1.0" encoding="UTF-8"?>
<!DOCTYPE svg PUBLIC "-//W3C//DTD SVG 1.1//EN" "http://www.w3.org/Graphics/SVG/1.1/DTD/svg11.dtd">
<!-- Creator: CorelDRAW -->
<svg xmlns="http://www.w3.org/2000/svg" xml:space="preserve" width="1080px" height="1080px" version="1.1" style="shape-rendering:geometricPrecision; text-rendering:geometricPrecision; image-rendering:optimizeQuality; fill-rule:evenodd; clip-rule:evenodd"
viewBox="0 0 1013.947 1013.947"
 xmlns:xlink="http://www.w3.org/1999/xlink"
 xmlns:xodm="http://www.corel.com/coreldraw/odm/2003">
 <defs>
  <style type="text/css">
   <![CDATA[
    .fil1 {fill:#4B4B4B}
    .fil0 {fill:#E0E0E0}
   ]]>
  </style>
 </defs>
 <g id="Слой_x0020_1">
  <metadata id="CorelCorpID_0Corel-Layer"/>
  <rect class="fil0" width="1013.947" height="1013.947"/>
  <g id="_3120311247056">
   <path class="fil1" d="M683.744 304.934c1.157,8.212 1.756,16.603 1.756,25.134 0,98.598 -79.929,178.527 -178.526,178.527 -98.598,0 -178.527,-79.929 -178.527,-178.527 0,-8.531 0.599,-16.922 1.756,-25.134l-59.366 -0.005c-15.614,-0.002 -32.817,-1.074 -48.17,0.022 -2.694,0.193 -9.716,1.541 -11.604,1.148 -3.208,-0.667 -7.262,-6.818 -6.907,-8.489 0.335,-1.579 7.817,-2.098 9.334,-2.329 44.185,-6.742 88.434,-24.595 132.235,-28.009 13.739,-1.07 17.618,2.157 21.441,-12.47 9.891,-37.839 16.819,-74.023 33.541,-109.899 7.114,-15.15 18.005,-37.333 37.668,-35.922 18.658,1.339 37.132,20.86 61.918,23.148 1.762,0.163 4.458,0.1 6.681,0.16 2.222,-0.06 4.918,0.003 6.68,-0.16 24.786,-2.288 43.26,-21.809 61.918,-23.148 19.663,-1.411 30.554,20.772 37.668,35.922 16.722,35.876 23.65,72.06 33.541,109.899 3.824,14.627 7.702,11.4 21.442,12.47 43.8,3.414 88.049,21.267 132.234,28.009 1.517,0.231 9,0.75 9.335,2.329 0.354,1.671 -3.7,7.822 -6.908,8.489 -1.887,0.393 -8.91,-0.955 -11.604,-1.148 -15.353,-1.096 -32.556,-0.024 -48.17,-0.022l-59.366 0.005zm-36.673 79.363c0,65.018 -105.785,68.824 -125.474,-15.685 -9.749,0 -19.498,0 -29.247,0 -19.689,84.509 -125.474,80.703 -125.474,15.685 0,-64.217 110.439,-87.671 125.474,-31.37 9.749,0 19.498,0 29.247,0 15.035,-56.301 125.474,-32.847 125.474,31.37z"/>
   <path class="fil1" d="M506.974 540.326c4.39,0.014 8.778,0.079 13.161,0.193 42.488,1.113 85.277,6.991 126.292,18.743 -11.784,17.842 -18.942,38.656 -18.942,60.163l0 35.997 -26.626 0 0 161.281c0,14.686 4.789,32.19 12.831,45.619 -3.372,-0.038 -6.62,-0.074 -9.711,-0.101 -32.359,-0.281 -64.653,-0.778 -97.005,-0.835 -32.353,0.057 -64.647,0.554 -97.006,0.835 -58.296,0.507 -169.622,4.277 -216.085,-34.464 -29.079,-24.247 -33.07,-61.559 -26.128,-96.837 12.393,-62.969 66.196,-110.936 120.513,-139.888 62.922,-33.538 134.653,-48.657 205.544,-50.513 4.383,-0.114 8.771,-0.179 13.162,-0.193zm188.346 36.207c10.313,4.389 20.445,9.215 30.359,14.499 26.76,14.264 53.392,33.146 75.012,56.16 0.084,2.744 0.183,5.487 0.265,8.23l-124.272 0c0.187,-6.26 0.463,-12.518 0.44,-18.787 -0.007,-1.781 0.311,-3.555 0.313,-5.387 0.005,-3.651 0.264,-7.293 0.281,-10.948l0.62 -10.938 -0.003 -0.307c-0.031,-3.567 0.914,-7.179 2.224,-10.48l3.314 -7.224c0.602,-1.035 1.164,-2.105 1.806,-3.105 2.603,-4.054 5.658,-7.727 9.054,-11.135 0.195,-0.195 0.391,-0.387 0.587,-0.578zm43.5 151.539c-6.941,0.161 -10.56,1.624 -15.524,6.559 -5.979,5.944 -7.266,16.147 -3.379,23.553 0.815,1.553 3.152,4.913 4.521,5.964l4.55 3.047 -0.458 5.506c-0.455,5.459 -1.721,11.68 -2.622,17.125 -0.92,5.557 -1.897,11.116 -2.781,16.678l-3.545 22.293 38.475 0 -3.544 -22.293c-0.884,-5.562 -1.861,-11.121 -2.781,-16.678 -0.901,-5.445 -2.167,-11.666 -2.622,-17.125l-0.458 -5.506 4.561 -3.053c1.337,-1.015 3.691,-4.397 4.509,-5.958 3.887,-7.406 2.6,-17.609 -3.378,-23.553 -4.964,-4.935 -8.583,-6.398 -15.524,-6.559z"/>
   <path class="fil1" d="M738.82 718.681c-9.605,0.19 -15.481,2.668 -22.143,9.292 -8.615,8.565 -11.065,23.157 -5.073,34.574 1.521,2.898 5.007,7.659 7.57,9.375 -0.299,3.585 -4.691,29.031 -5.319,33.108l-5.272 33.155 29.638 0 1.198 0 29.637 0 -5.271 -33.155c-0.628,-4.077 -5.02,-29.523 -5.319,-33.108 2.563,-1.716 6.049,-6.477 7.57,-9.375 5.991,-11.417 3.542,-26.009 -5.073,-34.574 -6.663,-6.624 -12.538,-9.102 -22.143,-9.292zm0.599 173.362l-1.198 0 -57.474 0c-16.018,0 -29.298,-5.504 -40.545,-13.918 -1.742,-1.303 -3.347,-2.581 -4.917,-4.16 -5.112,-5.141 -4.208,-4.08 -8.793,-9.664 -9.832,-11.97 -16.245,-31.774 -16.245,-47.598l0 -151.892 26.627 0 0 -45.386c0,-21.139 7.615,-40.616 18.211,-56.222 1.731,-2.55 3.566,-4.668 5.387,-7.019 3.826,-4.939 10.813,-11.264 15.911,-15.254 1.289,-1.008 2.275,-1.776 3.635,-2.719 2.504,-1.735 4.87,-3.339 7.584,-4.821 8.208,-4.482 17.217,-8.644 26.553,-10.663 3.502,-0.757 6.752,-1.541 10.464,-1.942 4.919,-0.532 9.266,-0.88 13.602,-0.937l0 -0.008c0.2,0 0.399,0.001 0.599,0.002 0.199,-0.001 0.399,-0.002 0.599,-0.002l0 0.008c4.336,0.057 8.683,0.405 13.601,0.937 3.713,0.401 6.963,1.185 10.464,1.942 9.337,2.019 18.346,6.181 26.554,10.663 2.714,1.482 5.08,3.086 7.584,4.821 1.36,0.943 2.346,1.711 3.635,2.719 5.097,3.99 12.085,10.315 15.911,15.254 1.821,2.351 3.656,4.469 5.387,7.019 10.596,15.606 18.211,35.083 18.211,56.222l0 45.386 26.627 0 0 151.892c0,15.824 -6.413,35.628 -16.245,47.598 -4.585,5.584 -3.682,4.523 -8.793,9.664 -1.57,1.579 -3.176,2.857 -4.917,4.16 -11.247,8.414 -24.527,13.918 -40.545,13.918l-57.474 0zm0 -342.524l0 0.008c-0.2,-0.003 -0.399,-0.005 -0.599,-0.007 -0.2,0.002 -0.399,0.004 -0.599,0.007l0 -0.008c-10.241,0.011 -20.412,2.168 -29.537,6.768 -7.697,3.88 -14.457,8.033 -20.6,14.196 -3.849,3.862 -7.3,8.01 -10.305,12.691 -0.835,1.301 -1.431,2.49 -2.235,3.817l-3.616 7.881c-1.717,4.267 -3.026,9.172 -2.981,14.266l-0.616 10.881c-0.006,4.122 -0.276,7.122 -0.282,11.216 -0.003,2.009 -0.323,3.136 -0.314,5.435 0.036,9.689 -0.604,18.438 -0.604,28.141l71.09 0 1.198 0 71.09 0c0,-9.703 -0.64,-18.452 -0.605,-28.141 0.009,-2.299 -0.31,-3.426 -0.313,-5.435 -0.006,-4.094 -0.276,-7.094 -0.282,-11.216l-0.617 -10.881c0.045,-5.094 -1.263,-9.999 -2.981,-14.266l-3.616 -7.881c-0.804,-1.327 -1.399,-2.516 -2.234,-3.817 -3.006,-4.681 -6.456,-8.829 -10.305,-12.691 -6.143,-6.163 -12.903,-10.316 -20.6,-14.196 -9.126,-4.6 -19.296,-6.757 -29.537,-6.768z"/>
  </g>
 </g>
</svg>
