<?xml version="1.0" encoding="UTF-8"?>
<!DOCTYPE svg PUBLIC "-//W3C//DTD SVG 1.1//EN" "http://www.w3.org/Graphics/SVG/1.1/DTD/svg11.dtd">
<!-- Creator: CorelDRAW -->
<svg xmlns="http://www.w3.org/2000/svg" xml:space="preserve" width="1080px" height="1080px" version="1.1" style="shape-rendering:geometricPrecision; text-rendering:geometricPrecision; image-rendering:optimizeQuality; fill-rule:evenodd; clip-rule:evenodd"
viewBox="0 0 1080 1080"
 xmlns:xlink="http://www.w3.org/1999/xlink"
 xmlns:xodm="http://www.corel.com/coreldraw/odm/2003">
 <defs>
  <style type="text/css">
   <![CDATA[
    .fil1 {fill:#4B4B4B}
    .fil0 {fill:#E0E0E0}
   ]]>
  </style>
 </defs>
 <g id="Слой_x0020_1">
  <metadata id="CorelCorpID_0Corel-Layer"/>
  <rect class="fil0" width="1080" height="1080"/>
  <g id="_3084553163824">
   <circle class="fil1" cx="540" cy="351.493" r="190.157"/>
   <path class="fil1" d="M540 575.447c4.677,0.015 9.351,0.084 14.019,0.206 75.509,1.977 151.913,18.081 218.934,53.804 57.856,30.838 115.164,81.929 128.363,149.001 7.395,37.576 3.144,77.319 -27.83,103.145 -49.489,41.264 -168.067,37.249 -230.161,36.709 -34.467,-0.3 -68.865,-0.829 -103.325,-0.889 -34.46,0.06 -68.858,0.589 -103.325,0.889 -62.094,0.54 -180.672,4.555 -230.161,-36.709 -30.974,-25.826 -35.225,-65.569 -27.83,-103.145 13.199,-67.072 70.507,-118.163 128.363,-149.001 67.021,-35.723 143.425,-51.827 218.934,-53.804 4.668,-0.122 9.342,-0.191 14.019,-0.206z"/>
  </g>
 </g>
</svg>
