<svg width="20" height="20" viewBox="0 0 20 20" fill="none" xmlns="http://www.w3.org/2000/svg">
<g clip-path="url(#clip0_184_42)">
<path fill-rule="evenodd" clip-rule="evenodd" d="M2.49989 0H17.5001C18.875 0 20 1.12497 20 2.49958V17.4998C20 18.8747 18.875 19.9997 17.5001 19.9997H2.49989C1.12497 19.9997 0 18.8747 0 17.4998V2.49958C0 1.12497 1.12497 0 2.49989 0ZM10.0059 3.09519C6.11958 3.09519 2.97804 6.25967 2.97804 10.1752C2.97804 13.3044 4.99111 15.9535 7.78303 16.8914C8.13234 16.9618 8.26043 16.739 8.26043 16.5515C8.26043 16.3873 8.24903 15.825 8.24903 15.2386C6.2937 15.6609 5.8868 14.3947 5.8868 14.3947C5.57289 13.5741 5.10719 13.3632 5.10719 13.3632C4.46707 12.9296 5.15354 12.9296 5.15354 12.9296C5.86356 12.9767 6.23596 13.6565 6.23596 13.6565C6.86409 14.7346 7.87647 14.4301 8.28352 14.2422C8.34187 13.7855 8.52784 13.4688 8.72598 13.293C7.16676 13.1286 5.5261 12.5193 5.5261 9.79989C5.5261 9.02621 5.80506 8.39322 6.24751 7.90109C6.17792 7.72529 5.9333 6.99825 6.31741 6.02537C6.31741 6.02537 6.91058 5.83803 8.24873 6.75211C8.82139 6.59789 9.4129 6.51766 10.0059 6.51766C10.5991 6.51766 11.204 6.59986 11.7628 6.75211C13.1005 5.83803 13.6941 6.02537 13.6941 6.02537C14.0784 6.99825 13.8338 7.72529 13.764 7.90109C14.2179 8.39322 14.4855 9.02621 14.4855 9.79989C14.4855 12.5193 12.8449 13.1172 11.2742 13.293C11.5302 13.5155 11.751 13.9377 11.751 14.6058C11.751 15.5553 11.7396 16.3171 11.7396 16.5515C11.7396 16.739 11.8677 16.9618 12.2167 16.8916C15.0092 15.9535 17.022 13.3044 17.022 10.1752C17.0334 6.25967 13.8804 3.09519 10.0059 3.09519Z" fill="#3B9702"/>
</g>
<defs>
<clipPath id="clip0_184_42">
<rect width="20" height="20" fill="white"/>
</clipPath>
</defs>
</svg>
