<?xml version="1.0" standalone="no"?>
<!DOCTYPE svg PUBLIC "-//W3C//DTD SVG 20010904//EN"
 "http://www.w3.org/TR/2001/REC-SVG-20010904/DTD/svg10.dtd">
<svg version="1.0" xmlns="http://www.w3.org/2000/svg"
 width="15px" height="15px" viewBox="0 0 200.000000 200.000000"
 preserveAspectRatio="xMidYMid meet">

<g transform="translate(0.000000,200.000000) scale(0.100000,-0.100000)"
fill="#000000" stroke="none">
<path d="M836 1885 c-288 -60 -515 -233 -641 -488 -71 -144 -89 -224 -88 -397
0 -117 4 -160 22 -225 87 -324 340 -570 668 -652 103 -26 323 -23 428 6 317
85 560 329 646 646 31 114 32 335 1 450 -30 109 -101 249 -172 340 -112 140
-297 260 -475 306 -104 27 -293 34 -389 14z m359 -129 c148 -40 307 -141 402
-255 63 -76 135 -217 160 -311 24 -90 24 -291 0 -380 -60 -223 -209 -405 -412
-506 -129 -63 -196 -79 -345 -79 -149 0 -216 16 -345 79 -203 101 -352 283
-412 506 -24 89 -24 291 0 380 79 293 309 512 607 575 81 18 262 13 345 -9z"/>
<path d="M927 1540 c-63 -50 -52 -146 19 -176 91 -38 174 50 132 141 -24 53
-104 71 -151 35z"/>
<path d="M905 1230 c-57 -28 -140 -114 -131 -135 6 -17 19 -17 78 1 9 3 26 -4
37 -15 20 -20 21 -32 21 -290 0 -148 4 -281 10 -295 11 -31 58 -56 102 -56 43
0 124 47 172 100 49 54 44 66 -27 62 -47 -3 -57 -1 -66 17 -7 13 -11 118 -11
296 l0 277 -29 29 c-36 36 -95 39 -156 9z"/>
</g>
</svg>
