<svg width="20" height="20" viewBox="0 0 20 20" fill="none" xmlns="http://www.w3.org/2000/svg">
<g clip-path="url(#clip0_184_57)">
<path fill-rule="evenodd" clip-rule="evenodd" d="M2.50021 0H17.4998C18.8748 0 20 1.12518 20 2.49936V17.4998C20 18.8748 18.8748 20 17.4998 20H2.50021C1.12518 20 0 18.8748 0 17.4998V2.49936C0 1.12518 1.12518 0 2.50021 0ZM16.1521 16.1581H13.5689V11.6762C13.5689 10.3534 13.0068 9.94524 12.282 9.94524C11.5154 9.94524 10.7641 10.5219 10.7641 11.7087V16.1581H8.18003V7.95157H10.6648V9.08873H10.6974C10.9472 8.58304 11.82 7.72054 13.1531 7.72054C14.5948 7.72054 16.1521 8.5762 16.1521 11.0824V16.1581ZM5.3367 6.80842C4.51442 6.80842 3.84701 6.18208 3.84701 5.32558C3.84701 4.46821 4.51442 3.84188 5.3367 3.84188C6.15898 3.84188 6.82639 4.46821 6.82639 5.32558C6.82639 6.18208 6.15898 6.80842 5.3367 6.80842ZM6.62873 16.1521H4.04552V7.94472H6.62873V16.1521Z" fill="#3B9702"/>
</g>
<defs>
<clipPath id="clip0_184_57">
<rect width="20" height="20" fill="white"/>
</clipPath>
</defs>
</svg>
