<svg width="13" height="18" viewBox="0 0 13 18" fill="none" xmlns="http://www.w3.org/2000/svg">
<path d="M6.52717 0.000784594C8.98363 0.0785763 11.5527 1.19559 12.636 3.68759C13.1652 4.89976 13.0593 6.34152 12.6882 7.73923C12.3127 9.15348 11.6369 10.629 10.8916 11.98C9.40685 14.6713 7.5471 16.9128 7.01327 17.4563L6.47896 18L5.94465 17.4563C5.41082 16.9128 3.59964 14.6712 2.1137 11.98C1.36788 10.6292 0.691609 9.15396 0.314724 7.74002C-0.0578134 6.34225 -0.166185 4.89988 0.360522 3.68759L0.362129 3.68524C1.45553 1.19613 4.02172 0.0786662 6.47896 0.000784594L6.50306 0L6.52717 0.000784594ZM6.50306 1.44679C4.42415 1.51931 2.51579 2.4513 1.72321 4.25564L1.72241 4.25485C1.38444 5.03507 1.40792 6.10155 1.74731 7.37518C2.08283 8.63406 2.7013 9.99587 3.41773 11.2934C4.49951 13.2527 5.73961 14.9036 6.47896 15.8275C7.21818 14.9037 8.50678 13.2533 9.58759 11.2942C10.3034 9.99672 10.9198 8.63463 11.254 7.37596C11.5924 6.10125 11.6142 5.03448 11.2733 4.25407L11.2725 4.2525C10.4893 2.45103 8.58281 1.51927 6.50306 1.44679ZM8.77367 5.85071C8.77367 4.76311 7.80183 3.81156 6.50306 3.81156C5.20111 3.81162 4.22281 4.76611 4.22281 5.85071C4.22284 6.92482 5.19951 7.8804 6.50306 7.88046C7.80343 7.88046 8.77364 6.92781 8.77367 5.85071ZM10.2545 5.85071C10.2544 7.81452 8.5282 9.32646 6.50306 9.32646C4.48121 9.3264 2.74204 7.81744 2.74201 5.85071C2.74201 3.87645 4.47957 2.36561 6.50306 2.36555C8.52985 2.36555 10.2545 3.87937 10.2545 5.85071Z" fill="currentColor"/>
</svg>
