<svg width="14" height="13" viewBox="0 0 14 13" fill="none" xmlns="http://www.w3.org/2000/svg">
<path d="M4.67718 0.00282103H6.5736C6.93761 0.00282103 7.23301 0.293527 7.23316 0.652363C7.23287 1.01109 6.93753 1.30261 6.5736 1.30261C4.93216 1.30261 3.29195 1.30061 1.65048 1.30049V11.7002H6.5736C6.93761 11.7002 7.23301 11.9909 7.23316 12.3498C7.23297 12.7086 6.93759 13 6.5736 13H1.28922L1.17691 12.9944C0.659872 12.9426 0.248811 12.5371 0.196153 12.0275L0.19043 11.9167V1.08398C0.19043 0.523099 0.622843 0.0618252 1.17691 0.00634731L1.28922 0H4.67718V0.00282103ZM9.49728 3.36549C9.79584 3.07137 10.2803 3.07143 10.5789 3.36549L13.8095 6.55043L12.7279 7.61677L12.725 7.61395L10.5789 9.73043C10.2803 10.0247 9.79587 10.0248 9.49728 9.73043C9.19886 9.43605 9.19886 8.95846 9.49728 8.66408L10.8872 7.29377H5.44833C5.02608 7.29367 4.68363 6.95615 4.68361 6.53985C4.6838 6.12368 5.02619 5.78602 5.44833 5.78593H10.8708L9.49728 4.43183C9.19894 4.13739 9.19874 3.65981 9.49728 3.36549Z" fill="currentColor"/>
</svg>
