<?xml version="1.0" encoding="UTF-8"?>
<!DOCTYPE svg PUBLIC "-//W3C//DTD SVG 1.1//EN" "http://www.w3.org/Graphics/SVG/1.1/DTD/svg11.dtd">
<!-- Creator: CorelDRAW -->
<svg xmlns="http://www.w3.org/2000/svg" xml:space="preserve" width="1000px" height="300px" version="1.1" style="shape-rendering:geometricPrecision; text-rendering:geometricPrecision; image-rendering:optimizeQuality; fill-rule:evenodd; clip-rule:evenodd"
viewBox="0 0 2420.309 729.74"
 xmlns:xlink="http://www.w3.org/1999/xlink"
 xmlns:xodm="http://www.corel.com/coreldraw/odm/2003">
 <defs>
  <style type="text/css">
   <![CDATA[
    .fil0 {fill:#3B9702}
    .fil2 {fill:white}
    .fil1 {fill:#3B9702;fill-rule:nonzero}
   ]]>
  </style>
 </defs>
 <g id="Слой_x0020_1">
  <metadata id="CorelCorpID_0Corel-Layer"/>
  <g id="_1475675627648">
   <path class="fil0" d="M1866.085 435.842l89.653 -226.56 46.93 0 88.997 226.56 -55.669 0 -16.24 -43.366 -83.079 0 -16.219 43.366 -54.373 0zm137.906 -85.448l-11.029 -29.45c-1.521,-4.534 -3.18,-9.379 -5.028,-14.566 -3.458,-9.775 -6.476,-19.728 -9.4,-29.675 -7.294,24.717 -17.097,49.565 -26.12,73.691l51.577 0z"/>
   <path class="fil0" d="M819.331 439.077c-18.127,0 -34.465,-2.912 -49.031,-8.736 -45.808,-18.323 -70.397,-59.85 -70.397,-108.418 0,-49.04 27.397,-90.595 73.309,-108.433 25.772,-10.01 57.837,-11.645 84.478,-3.878 19.75,5.757 39.786,16.514 53.237,32.361l-33.981 35.609c-15.844,-14.966 -33.261,-23.629 -55.343,-23.629 -38.643,0 -65.055,30.2 -65.055,67.97 0,38.188 29.367,67.964 67.641,67.964 21.875,0 46.122,-13.474 47.802,-37.225l-54.596 0.006 0 -43.704 106.472 0c0.439,2.372 0.757,5.614 0.973,9.718 1.165,21.39 1.628,40.475 -7.278,61.008 -17.076,39.399 -56.514,59.387 -98.231,59.387z"/>
   <path class="fil0" d="M1529.684 435.842l0 -226.56 49.516 0 106.5 144.408c-1.964,-16.902 -3.574,-33.749 -4.065,-50.873 -0.884,-31.096 -0.485,-62.411 -0.485,-93.532l53.724 0 0 226.557 -50.168 0 -105.271 -141.651 -0.003 0c2.342,22.549 4.299,44.518 4.299,67.216l0 74.435 -54.047 0z"/>
   <polygon class="fil1" points="2288.577,435.842 2288.577,389.238 2326.768,389.238 2326.768,255.886 2288.577,255.886 2288.577,209.282 2420.309,209.282 2420.309,255.886 2382.118,255.886 2382.118,389.238 2420.309,389.238 2420.309,435.842 "/>
   <path class="fil1" d="M2099.175 435.842l0 -226.56 98.063 0c14.246,0 26.979,3.242 38.201,9.709 11.214,6.477 20.063,15.271 26.531,26.379 6.476,11.111 9.714,23.79 9.714,38.036 0,14.447 -3.238,27.507 -9.714,39.158 -6.468,11.648 -15.317,20.823 -26.531,27.503 -11.222,6.69 -23.955,10.044 -38.201,10.044l-42.707 0 0 75.731 -55.356 0zm54.7 -124.606l35.92 0c4.757,0 9.004,-1.135 12.785,-3.394 3.778,-2.272 6.861,-5.455 9.221,-9.559 2.385,-4.092 3.568,-8.739 3.568,-13.911 0,-5.397 -1.183,-10.032 -3.568,-13.91 -2.36,-3.891 -5.443,-6.916 -9.221,-9.066 -3.781,-2.155 -8.028,-3.238 -12.785,-3.238l-35.92 0 0 53.078z"/>
   <polygon class="fil1" points="1759.21,366.579 1759.21,319.011 1870.549,319.011 1870.549,366.579 "/>
   <polygon class="fil1" points="1341.578,435.842 1341.578,209.282 1499.524,209.282 1499.524,256.539 1395.626,256.539 1395.626,297.966 1485.275,297.966 1485.275,343.277 1395.626,343.277 1395.626,388.585 1503.077,388.585 1503.077,435.842 "/>
   <polygon class="fil1" points="1153.476,435.842 1153.476,209.282 1311.416,209.282 1311.416,256.539 1207.52,256.539 1207.52,297.966 1297.17,297.966 1297.17,343.277 1207.52,343.277 1207.52,388.585 1314.974,388.585 1314.974,435.842 "/>
   <path class="fil1" d="M946.273 435.842l0 -226.56 102.594 0c14.672,0 27.833,3.129 39.481,9.395 11.654,6.251 20.884,14.834 27.677,25.729 6.794,10.898 10.203,23.354 10.203,37.38 0,14.234 -3.409,26.968 -10.203,38.192 -6.793,11.221 -16.029,20.115 -27.677,26.696 -1.189,0.673 -2.397,1.311 -3.62,1.915l50.553 87.576 -63.112 -0.323 -44.528 -79.295 -28.617 0 0 79.295 -52.751 0zm52.754 -122.344l44.982 0c5.614,0 10.526,-1.238 14.731,-3.723 4.208,-2.476 7.446,-5.882 9.703,-10.187 2.274,-4.318 3.396,-9.276 3.396,-14.89 0,-5.824 -1.338,-10.897 -4.034,-15.215 -2.701,-4.318 -6.479,-7.712 -11.337,-10.2 -4.848,-2.473 -10.626,-3.711 -17.31,-3.711l-40.134 0 0 57.926 0.003 0z"/>
   <g>
    <path class="fil2" d="M402.825 372.256l-89.412 -0.012 0 -71.543 174.363 0c0.707,3.89 1.238,9.187 1.588,15.901 0.345,6.712 0.616,13.167 0.796,19.345 0.171,6.186 0.259,11.044 0.259,14.572 0,24.034 -4.329,46.018 -12.977,65.975 -8.657,19.976 -20.851,37.192 -36.572,51.688 -15.722,14.471 -34.188,25.698 -55.383,33.648 -21.198,7.952 -44.162,11.919 -68.894,11.919 -29.678,0 -56.438,-4.769 -80.292,-14.304 -23.854,-9.538 -44.433,-22.964 -61.74,-40.283 -17.319,-17.307 -30.562,-37.627 -39.756,-60.948 -9.187,-23.314 -13.776,-48.75 -13.776,-76.312 0,-27.553 4.952,-52.992 14.835,-76.313 9.897,-23.326 23.762,-43.637 41.609,-60.95 17.835,-17.311 39.036,-30.739 63.597,-40.271 24.559,-9.538 51.492,-14.319 80.82,-14.319 20.14,0 39.304,2.653 57.499,7.949 18.197,5.309 34.806,12.551 49.821,21.729 15.011,9.187 27.47,19.615 37.355,31.275l-55.642 58.295c-12.721,-12.011 -26.403,-21.466 -41.069,-28.348 -14.664,-6.895 -31.185,-10.334 -49.547,-10.334 -15.206,0 -29.239,2.732 -42.14,8.208 -12.898,5.477 -24.198,13.249 -33.916,23.321 -9.718,10.065 -17.231,21.908 -22.528,35.508 -5.309,13.605 -7.946,28.36 -7.946,44.25 0,15.901 2.82,30.562 8.474,43.991 5.659,13.425 13.517,25.18 23.582,35.246 10.078,10.065 21.82,17.923 35.246,23.582 13.429,5.656 27.913,8.48 43.463,8.48 10.953,0 21.107,-1.677 30.465,-5.04 9.367,-3.351 17.667,-7.95 24.921,-13.777 7.23,-5.827 12.889,-12.718 16.945,-20.67 3.442,-6.709 5.424,-13.865 5.952,-21.458z"/>
    <path id="rect915" class="fil1" d="M59.99 0.024c-15.036,0.314 -29.867,6.468 -40.765,16.969 -11.337,10.764 -18.332,26.013 -19.106,41.713 -0.226,6.87 -0.046,13.752 -0.101,20.625 0,195.762 -0.012,391.519 0,587.281 0.223,15.115 5.556,30.016 14.496,42.094 6.904,9.254 16.408,17.024 27.687,19.881 7.163,1.878 14.822,1.396 21.805,-1.012 162.69,-49.794 325.393,-99.569 488.071,-149.387 13.71,-4.33 27.239,-10.108 38.539,-19.229 8.648,-6.973 15.643,-16.352 18.713,-27.192 1.833,-6.117 2.238,-12.551 2.092,-18.915 -0.012,-150.524 0.012,-301.036 -0.012,-451.56 -0.146,-15.417 -6.251,-30.687 -16.777,-41.844 -10.639,-11.459 -25.72,-18.545 -41.237,-19.329 -6.794,-0.226 -13.597,-0.046 -20.39,-0.104 -157.416,0 -314.834,-0.009 -472.25,0.012 -0.259,0 -0.506,0 -0.765,0l0 -0.003zm342.835 372.232l-89.412 -0.012 0 -71.543 174.363 0c0.707,3.89 1.238,9.187 1.585,15.901 0.351,6.712 0.619,13.17 0.799,19.345 0.168,6.183 0.259,11.041 0.259,14.572 0,24.03 -4.329,46.018 -12.977,65.978 -8.66,19.973 -20.851,37.189 -36.572,51.685 -15.722,14.474 -34.188,25.695 -55.386,33.648 -21.195,7.949 -44.162,11.919 -68.891,11.919 -29.678,0 -56.441,-4.766 -80.292,-14.304 -23.854,-9.535 -44.433,-22.964 -61.74,-40.283 -17.319,-17.307 -30.565,-37.627 -39.752,-60.951 -9.188,-23.311 -13.777,-48.747 -13.777,-76.312 0,-27.55 4.946,-52.989 14.832,-76.313 9.897,-23.323 23.762,-43.631 41.609,-60.95 17.835,-17.308 39.036,-30.733 63.594,-40.271 24.562,-9.535 51.495,-14.316 80.823,-14.316 20.143,0 39.304,2.656 57.502,7.952 18.194,5.306 34.803,12.551 49.818,21.726 15.011,9.187 27.473,19.612 37.355,31.275l-55.642 58.298c-12.721,-12.011 -26.406,-21.469 -41.069,-28.351 -14.664,-6.895 -31.185,-10.334 -49.55,-10.334 -15.203,0 -29.239,2.732 -42.137,8.208 -12.898,5.477 -24.202,13.249 -33.916,23.324 -9.718,10.065 -17.228,21.905 -22.525,35.502 -5.308,13.608 -7.952,28.36 -7.952,44.253 0,15.901 2.823,30.565 8.48,43.991 5.656,13.428 13.517,25.18 23.582,35.246 10.075,10.062 21.814,17.923 35.243,23.582 13.429,5.656 27.913,8.477 43.463,8.477 10.953,0 21.11,-1.674 30.465,-5.037 9.367,-3.351 17.667,-7.953 24.921,-13.777 7.23,-5.824 12.886,-12.718 16.948,-20.667 3.439,-6.715 5.418,-13.868 5.949,-21.457l0 -0.004z"/>
   </g>
  </g>
 </g>
</svg>
