<svg
  width="17"
  height="17"
  viewBox="0 0 17 17"
  fill="none"
  xmlns="http://www.w3.org/2000/svg"
  className="status-icon"
>
  <path
    d="M0.786136 3.46209C1.00578 3.4621 1.20232 3.54995 1.34104 3.69054C1.48555 3.83699 1.57227 4.03619 1.57227 4.25879V14.44C1.57227 14.9731 2 15.4124 2.53179 15.4124C2.5549 15.4124 2.5838 15.4066 2.60691 15.4066L3.11559 15.4124H12.8324C13.052 15.4124 13.2486 15.5003 13.3873 15.6409C13.5318 15.7874 13.6185 15.9866 13.6185 16.2033C13.6185 16.4259 13.5318 16.6251 13.3873 16.7715C13.2486 16.9121 13.052 17 12.8324 17H1.54337C1.11563 17 0.734124 16.8242 0.450888 16.5431C0.173437 16.2619 6.52772e-06 15.8694 0 15.4418V4.25879C0 4.03619 0.08672 3.83699 0.231229 3.69054C0.369956 3.54996 0.56649 3.46209 0.786136 3.46209ZM15.526 0C15.9306 0 16.3006 0.169865 16.5665 0.439334C16.8324 0.708801 17 1.07787 17 1.48793V12.1085C17 12.5186 16.8324 12.8935 16.5665 13.163C16.3006 13.4324 15.9306 13.5965 15.526 13.5965H5.05201C4.64161 13.5965 4.27745 13.4324 4.01156 13.163C3.74567 12.8935 3.57806 12.5186 3.57805 12.1085V1.48793C3.57805 1.07787 3.74567 0.708801 4.01156 0.439334C4.27745 0.169872 4.64162 3.22592e-06 5.05201 0H15.526ZM12 7.65059C11.8786 7.65059 11.7688 7.70916 11.6994 7.80874L9.58958 10.767L8.15609 8.74603C8.09829 8.66988 8.01736 8.62301 7.9191 8.623C7.82662 8.623 7.7399 8.66988 7.68787 8.74603L5.77459 11.4349C5.71101 11.5227 5.69943 11.634 5.75146 11.7336C5.80348 11.8391 5.89595 11.8977 6.00577 11.8977H14.4798C14.6243 11.8977 14.7514 11.8215 14.815 11.6868C14.8786 11.5579 14.867 11.4114 14.7861 11.2943L12.3064 7.80874C12.2312 7.70916 12.1272 7.6506 12 7.65059Z"
    fill="currentColor"
  />
</svg>
