<svg width="15" height="15" viewBox="0 0 15 15" fill="none" xmlns="http://www.w3.org/2000/svg">
<g clip-path="url(#clip0_1395_599)">
<path d="M15 15H0V0H15V15ZM7.46635 8.76296C7.45844 8.7699 7.44587 8.7818 7.42789 8.79967C7.36684 8.86037 7.28795 8.94769 7.15255 9.09946L3.32586 13.3892H11.6741L7.84744 9.09946C7.71205 8.94769 7.63316 8.86037 7.57211 8.79967C7.55335 8.78104 7.53973 8.76979 7.5319 8.76296C7.51051 8.75462 7.48762 8.75422 7.46635 8.76296ZM1.61179 12.8901L5.9507 8.02704C6.07313 7.8898 6.18841 7.75992 6.29159 7.65732C6.39822 7.55132 6.53049 7.4336 6.70153 7.34268L6.89295 7.25615C7.34864 7.082 7.86174 7.11058 8.29847 7.34268C8.46951 7.4336 8.60178 7.55132 8.70841 7.65732C8.81159 7.75992 8.92687 7.8898 9.0493 8.02704L13.3891 12.891V1.61257H1.61179V12.8901ZM10.238 3.11327C11.0992 3.20049 11.771 3.92831 11.7712 4.81238C11.771 5.7552 11.007 6.51923 10.0641 6.51934C9.17993 6.51923 8.45213 5.84744 8.3649 4.98631L8.35616 4.81238L8.3649 4.63757C8.45247 3.77679 9.18018 3.10464 10.0641 3.10453L10.238 3.11327ZM10.0641 4.17871C9.71444 4.17883 9.43057 4.46276 9.43039 4.81238C9.4305 5.1184 9.64787 5.37389 9.93648 5.43293L10.0641 5.44604C10.3701 5.44594 10.6256 5.22851 10.6847 4.93998L10.6978 4.81238C10.6976 4.46276 10.4138 4.17883 10.0641 4.17871Z" fill="currentColor"/>
</g>
<defs>
<clipPath id="clip0_1395_599">
<rect width="15" height="15" fill="currentColor"/>
</clipPath>
</defs>
</svg>
