<svg width="24" height="17" viewBox="0 0 24 17" fill="none" xmlns="http://www.w3.org/2000/svg">
<path d="M1.46269 2.29265L0 0H1.84472H3.04571H6.92674H22.938C23.5245 0 24 0.369565 24 0.934584V15.9778C24 16.5428 23.5245 17 22.938 17H4.55396C3.96748 17 3.49199 16.5428 3.49199 15.9778V5.67266L1.46269 2.29265ZM12.6829 5.21435C12.6829 4.64933 13.1595 4.19215 13.746 4.19215C14.3325 4.19215 14.808 4.64933 14.808 5.21435V7.4778H17.1632C17.7509 7.4778 18.2264 7.9361 18.2264 8.5C18.2264 9.0639 17.7509 9.5222 17.1632 9.5222H14.808V11.7856C14.808 12.3507 14.3325 12.8078 13.746 12.8078C13.1595 12.8078 12.6829 12.3507 12.6829 11.7856V9.5222H10.3288C9.74113 9.5222 9.26564 9.0639 9.26564 8.5C9.26564 7.9361 9.74113 7.4778 10.3288 7.4778H12.6829V5.21435ZM6.91856 1.95229L3.68125 1.91859L5.42082 4.81558C5.54466 4.98295 5.6171 5.18739 5.6171 5.40756V14.9567H21.8749V1.95566H6.92674V1.95229H6.91856Z" fill="currentColor"/>
</svg>
