<svg width="15" height="25" viewBox="0 0 15 22" fill="none" xmlns="http://www.w3.org/2000/svg">
<g clip-path="url(#clip0_1044_23)">
<path d="M4.4772 0.317425C5.41626 0.266076 6.02904 0.247321 6.57234 0.499933C7.23532 0.806233 7.55304 1.33682 7.73576 2.33726C7.79747 2.67929 7.82939 2.84699 7.86338 3.02688C8.0274 3.88889 8.21176 4.85231 8.2611 5.65059C8.35287 7.14895 7.15425 7.55171 5.95656 7.95338C5.68825 8.04345 5.41971 8.13281 5.21812 8.22408C5.13282 8.26266 5.36784 8.37941 5.4176 8.70301V8.70668C5.54296 9.51943 5.93071 10.6283 6.3964 11.7199C6.89828 12.786 7.46505 13.805 7.98852 14.4392C8.19758 14.6939 8.12946 14.9438 8.21401 14.9083C8.41477 14.8241 8.66498 14.6851 8.91529 14.5469C10.0201 13.9398 11.1266 13.3334 12.1875 14.4085C12.7497 14.9777 13.3494 15.7594 13.8861 16.4602C14.0373 16.6574 14.1837 16.8489 14.3186 17.0212C14.9449 17.8257 15.1284 18.4121 14.9145 19.0999C14.739 19.6676 14.3111 20.1037 13.6408 20.7596L13.564 20.8343L13.4686 20.8919C13.2208 21.0388 12.9806 21.162 12.75 21.2606C10.8565 22.0718 8.92136 21.7455 7.14352 20.6775C5.48799 19.6815 3.97064 18.0206 2.77729 16.056C2.33417 15.3285 1.9389 14.5692 1.60148 13.7961H1.60272C1.24832 13.0219 0.946733 12.2283 0.704449 11.4345C0.0340194 9.23988 -0.191356 7.01485 0.174158 5.13246C0.567164 3.1137 1.62272 1.47864 3.50458 0.634671C3.74611 0.526745 3.9983 0.432895 4.26161 0.354171L4.36569 0.323549L4.4772 0.317425ZM4.6903 2.12658C4.54049 2.17506 4.39842 2.22929 4.26533 2.28949C2.99097 2.86087 2.26674 4.02183 1.98433 5.47543C1.67479 7.06408 1.87655 8.98588 2.46383 10.9103C2.68559 11.6364 2.96165 12.3586 3.2828 13.0599L3.29272 13.0759C3.60771 13.7954 3.96317 14.4817 4.35082 15.119C5.39752 16.8424 6.70329 18.2824 8.10126 19.1231C9.37821 19.8906 10.7353 20.1393 12.0202 19.5886C12.1631 19.5272 12.2994 19.4605 12.4278 19.3889C12.8453 18.981 13.1067 18.7144 13.1527 18.5695C13.1629 18.5371 13.0765 18.4073 12.8603 18.1297C12.7191 17.9494 12.5728 17.7586 12.4216 17.5614C11.9204 16.9072 11.3602 16.1776 10.8692 15.68C10.7906 15.6002 10.2989 15.8702 9.80736 16.1405C9.52839 16.2931 9.24927 16.4476 8.93635 16.5803C8.10866 16.9272 7.30133 16.4867 6.56119 15.5881C5.92936 14.8223 5.27803 13.6548 4.71632 12.4585L4.70146 12.4279C4.18326 11.2155 3.74639 9.95563 3.59627 8.97616C3.4202 7.82968 3.63239 6.94303 4.44994 6.56925C4.75372 6.43183 5.06021 6.32861 5.36556 6.22628C5.89681 6.048 6.42818 5.87007 6.42242 5.75715C6.37961 5.06915 6.20859 4.16681 6.05444 3.36005C5.99662 3.05307 5.93856 2.75047 5.92187 2.65329C5.85922 2.30854 5.82174 2.15943 5.79301 2.14618C5.65466 2.08327 5.27934 2.09618 4.6903 2.12658Z" fill="currentColor"/>
</g>
<defs>
<clipPath id="clip0_1044_23">
<rect width="15" height="22" fill="white"/>
</clipPath>
</defs>
</svg>
