<svg width="15" height="15" viewBox="0 0 15 15" fill="none" xmlns="http://www.w3.org/2000/svg">
<g clip-path="url(#clip0_1432_619)">
<path d="M6.86133 10.6357C8.03854 10.6361 8.99656 11.6111 8.99707 12.8174C8.99698 14.024 8.03885 14.9996 6.86133 15H2.13672C0.959047 14.9998 8.61312e-05 14.0241 0 12.8174C0.000507519 11.611 0.959363 10.636 2.13672 10.6357H6.86133ZM2.13672 12.1465C1.77078 12.1467 1.47805 12.4492 1.47754 12.8174C1.47764 13.1859 1.77055 13.489 2.13672 13.4893H6.86133C7.22713 13.4888 7.52138 13.186 7.52148 12.8174C7.52098 12.4492 7.22689 12.147 6.86133 12.1465H2.13672ZM12.8643 5.31738C14.0415 5.31792 14.9997 6.29361 15 7.5C14.9999 8.70653 14.0416 9.68208 12.8643 9.68262H2.13672C0.959047 9.6824 8.61313e-05 8.70671 0 7.5C0.000307564 6.29344 0.959233 5.3176 2.13672 5.31738H12.8643ZM2.13672 6.8291C1.77068 6.82932 1.47785 7.1316 1.47754 7.5C1.47764 7.86856 1.77054 8.17166 2.13672 8.17188H12.8643C13.23 8.17134 13.5233 7.86849 13.5234 7.5C13.5232 7.17752 13.2984 6.90572 12.9971 6.84277L12.8643 6.8291H2.13672ZM9.84277 0C11.0202 0.000493962 11.9785 0.976913 11.9785 2.18359C11.978 3.38979 11.0199 4.36376 9.84277 4.36426H2.13672C0.959301 4.36404 0.000499303 3.38994 0 2.18359C0 0.976768 0.959037 0.000218768 2.13672 0H9.84277ZM2.13672 1.51172C1.77052 1.51194 1.47754 1.8149 1.47754 2.18359C1.47804 2.55182 1.77079 2.85427 2.13672 2.85449H9.84277C10.2084 2.854 10.5015 2.55177 10.502 2.18359C10.502 1.81496 10.2086 1.51221 9.84277 1.51172H2.13672Z" fill="currentColor"/>
</g>
<defs>
<clipPath id="clip0_1432_619">
<rect width="15" height="15" fill="white"/>
</clipPath>
</defs>
</svg>
