<svg width="18" height="15" viewBox="0 0 18 15" fill="none" xmlns="http://www.w3.org/2000/svg">
<g clip-path="url(#clip0_1432_623)">
<path d="M18 12.6402H15.2073L15.2958 13.4994L1.30029 15L0 2.42983L0.575744 2.36805L3.92661 2.00883V0H18V12.6402ZM1.27204 3.47437L2.3306 13.7096L12.3022 12.6402H3.92661V3.18904L1.27204 3.47437ZM5.08438 11.4664H16.8429V1.17447H5.08438V11.4664ZM10.963 2.76549C11.2825 2.76549 11.5417 3.02868 11.5419 3.35272V4.08136C11.7639 4.14336 11.972 4.24038 12.1609 4.36606C12.1839 4.32851 12.2112 4.29293 12.2432 4.26033L12.7819 3.71194L12.8258 3.67182C13.0527 3.48369 13.3874 3.49738 13.5987 3.71258C13.81 3.92782 13.8231 4.26825 13.6383 4.49917L13.5987 4.54439L13.0607 5.09214C13.0163 5.13726 12.9661 5.17303 12.9131 5.20042C12.983 5.33197 13.0406 5.47134 13.0851 5.61696C13.1002 5.61415 13.1155 5.61219 13.131 5.61059L13.19 5.60741H13.9516C14.2712 5.60741 14.5305 5.87046 14.5305 6.19464C14.5303 6.51871 14.2711 6.78188 13.9516 6.78188H13.19L13.1467 6.77933C13.1013 7.01433 13.0217 7.23633 12.9137 7.43981C12.9667 7.46719 13.0164 7.50364 13.0607 7.54872L13.5987 8.09711L13.6383 8.14169C13.8232 8.37266 13.8102 8.71366 13.5987 8.92892C13.3873 9.14416 13.0527 9.15731 12.8258 8.96905L12.7819 8.92892L12.2432 8.38117C12.2111 8.34848 12.1839 8.31247 12.1609 8.27481C11.972 8.40059 11.7639 8.49744 11.5419 8.55951V9.2875L11.5387 9.34801C11.509 9.64392 11.2625 9.87474 10.963 9.87474C10.6635 9.87474 10.417 9.64392 10.3872 9.34801L10.3841 9.2875V8.55951C10.1618 8.49735 9.95349 8.40018 9.76441 8.27417C9.75156 8.29529 9.73808 8.31628 9.72235 8.33595L9.68279 8.38117L9.14409 8.92892C8.91854 9.15857 8.55281 9.15857 8.32725 8.92892C8.10171 8.69927 8.1017 8.32675 8.32725 8.09711L8.86532 7.54872L8.90928 7.5086C8.94183 7.48158 8.97656 7.45852 9.01287 7.43981C8.90485 7.23628 8.82465 7.0144 8.77931 6.77933C8.76489 6.78042 8.75005 6.78188 8.73536 6.78188H7.97377L7.91475 6.77869C7.62325 6.74845 7.39627 6.49831 7.39614 6.19464C7.39614 5.89076 7.62366 5.64071 7.91538 5.61059L7.9744 5.60741H8.73599C8.77158 5.60742 8.80639 5.61069 8.84021 5.61696C8.88479 5.47112 8.94284 5.33152 9.01287 5.19978C8.9768 5.18114 8.94164 5.15913 8.90928 5.13227L8.86532 5.09214L8.32725 4.54439C8.1017 4.31474 8.1017 3.94159 8.32725 3.71194C8.55276 3.48255 8.91858 3.48255 9.14409 3.71194L9.68279 4.26033L9.72235 4.30491C9.73809 4.32457 9.75155 4.34559 9.76441 4.36669C9.95347 4.24074 10.1618 4.14351 10.3841 4.08136V3.35272C10.3843 3.0287 10.6435 2.76551 10.963 2.76549ZM10.9636 5.17558C10.4007 5.17558 9.89336 5.65946 9.89313 6.32011C9.89313 6.98101 10.4006 7.46465 10.9636 7.46465C11.5265 7.46441 12.0335 6.98084 12.0335 6.32011C12.0333 5.65962 11.5264 5.17581 10.9636 5.17558Z" fill="currentColor"/>
</g>
<defs>
<clipPath id="clip0_1432_623">
<rect width="18" height="15" fill="white"/>
</clipPath>
</defs>
</svg>
