<svg width="20" height="20" viewBox="0 0 20 20" fill="none" xmlns="http://www.w3.org/2000/svg">
<path fill-rule="evenodd" clip-rule="evenodd" d="M2.55809 0.000976563H17.4419C18.1444 0.000976563 18.7847 0.288489 19.2478 0.751618C19.7109 1.2163 20 1.8566 20 2.55906V17.4429C20 18.1454 19.7109 18.7857 19.2478 19.2488C18.7847 19.7119 18.1444 19.9994 17.4419 19.9994H2.55809C1.85562 19.9994 1.21532 19.7119 0.752195 19.2488C0.287513 18.7857 0 18.1454 0 17.4429V2.55906C0 1.85504 0.289067 1.2163 0.752195 0.751618C1.21532 0.288489 1.85562 0.000976563 2.55809 0.000976563ZM10.0008 0.156389C10.0101 1.51625 10.2945 2.81083 10.7996 3.9873H11.6854H12.7376C13.3592 3.9873 13.9109 4.05413 14.3865 4.194L14.4067 4.19866L14.4254 4.20488C14.9258 4.37272 15.3578 4.62915 15.7386 4.98971L15.7588 5.00991L15.779 5.03012C16.1365 5.40777 16.4022 5.84448 16.5576 6.35423C16.7022 6.82513 16.7674 7.38306 16.7674 8.01403V8.75846C16.7674 9.0009 16.7581 9.24334 16.7363 9.47801C17.7139 9.80904 18.7583 9.99243 19.8446 10.0002V2.55906C19.8446 1.89856 19.5742 1.29711 19.139 0.86196C18.7039 0.426806 18.1024 0.156389 17.4419 0.156389H10.0008ZM12.3351 9.54795H6.47292V7.22765H12.3351C12.677 7.22765 12.9163 7.2867 13.036 7.39083C13.1556 7.49496 13.2287 7.68922 13.2287 7.97207V8.80508C13.2287 9.10192 13.1556 9.29463 13.036 9.40031C12.9163 9.50444 12.677 9.54795 12.3351 9.54795ZM12.7376 5.041H3.98632V14.961H6.47292V11.733H11.0545L13.2287 14.961H16.0121L13.6157 11.7191C14.5 11.587 14.8963 11.3165 15.2242 10.8705C15.5505 10.4245 15.7153 9.71113 15.7153 8.75846V8.01403C15.7153 7.44989 15.6562 7.0023 15.5505 6.66039C15.4464 6.31848 15.2677 6.02165 15.0144 5.75434C14.7471 5.50102 14.4502 5.32229 14.0912 5.20418C13.7338 5.10005 13.2877 5.041 12.7376 5.041Z" fill="#3B9702"/>
<mask id="mask0_184_49" style="mask-type:luminance" maskUnits="userSpaceOnUse" x="0" y="0" width="20" height="20">
<path d="M2.55809 0.000976563H17.4419C18.1444 0.000976563 18.7847 0.288489 19.2478 0.751618C19.7109 1.2163 20 1.8566 20 2.55906V17.4429C20 18.1454 19.7109 18.7857 19.2478 19.2488C18.7847 19.7119 18.1444 19.9994 17.4419 19.9994H2.55809C1.85562 19.9994 1.21532 19.7119 0.752195 19.2488C0.287513 18.7857 0 18.1454 0 17.4429V2.55906C0 1.85504 0.289067 1.2163 0.752195 0.751618C1.21532 0.288489 1.85562 0.000976563 2.55809 0.000976563ZM10.0008 0.156389C10.0101 1.51625 10.2945 2.81083 10.7996 3.9873H11.6854H12.7376C13.3592 3.9873 13.9109 4.05413 14.3865 4.194L14.4067 4.19866L14.4254 4.20488C14.9258 4.37272 15.3578 4.62915 15.7386 4.98971L15.7588 5.00991L15.779 5.03012C16.1365 5.40777 16.4022 5.84448 16.5576 6.35423C16.7022 6.82513 16.7674 7.38306 16.7674 8.01403V8.75846C16.7674 9.0009 16.7581 9.24334 16.7363 9.47801C17.7139 9.80904 18.7583 9.99243 19.8446 10.0002V2.55906C19.8446 1.89856 19.5742 1.29711 19.139 0.86196C18.7039 0.426806 18.1024 0.156389 17.4419 0.156389H10.0008ZM12.3351 9.54795H6.47292V7.22765H12.3351C12.677 7.22765 12.9163 7.2867 13.036 7.39083C13.1556 7.49496 13.2287 7.68922 13.2287 7.97207V8.80508C13.2287 9.10192 13.1556 9.29463 13.036 9.40031C12.9163 9.50444 12.677 9.54795 12.3351 9.54795ZM12.7376 5.041H3.98632V14.961H6.47292V11.733H11.0545L13.2287 14.961H16.0121L13.6157 11.7191C14.5 11.587 14.8963 11.3165 15.2242 10.8705C15.5505 10.4245 15.7153 9.71113 15.7153 8.75846V8.01403C15.7153 7.44989 15.6562 7.0023 15.5505 6.66039C15.4464 6.31848 15.2677 6.02165 15.0144 5.75434C14.7471 5.50102 14.4502 5.32229 14.0912 5.20418C13.7338 5.10005 13.2877 5.041 12.7376 5.041Z" fill="white"/>
</mask>
<g mask="url(#mask0_184_49)">
<path d="M0 0.000976562L20 19.9994M20 0.000976562L0 19.9994" stroke="#3B9702" stroke-width="1.02572" stroke-miterlimit="22.9256"/>
</g>
</svg>
