<svg width="22" height="22" viewBox="0 0 22 22" fill="currentColor" xmlns="http://www.w3.org/2000/svg">
<path d="M13.1174 0C13.7517 0 14.2666 0.500944 14.2668 1.11816V3.69727L15.0676 4.14844L15.0666 4.15039L15.8683 4.60059L18.1027 3.3457C18.1219 3.33324 18.1412 3.32114 18.1613 3.30957C18.7086 3.00052 19.4099 3.18337 19.7267 3.71582L20.7863 5.50098H20.7843L21.8087 7.22754C21.8216 7.24625 21.833 7.26556 21.8449 7.28516C22.1616 7.81787 21.9753 8.50045 21.4279 8.80957L19.13 10.0996V11.9014L21.4279 13.1924C21.9752 13.5015 22.1615 14.1832 21.8449 14.7158L20.7863 16.501L20.7843 16.5L19.7267 18.2812C19.4127 18.8139 18.7136 18.9978 18.1662 18.6914L15.8683 17.4004L15.1262 17.8174C15.107 17.8298 15.0876 17.8419 15.0676 17.8525L14.2668 18.3037V20.8838C14.2666 21.5001 13.7517 22.001 13.1174 22.001H8.88204C8.24864 22.001 7.73375 21.5001 7.73361 20.8838V18.3037L6.93283 17.8525L6.93381 17.8516L6.13108 17.4004L3.83421 18.6914C3.28589 18.9978 2.58763 18.8139 2.27269 18.2812L1.24926 16.5586C1.23744 16.54 1.22495 16.5204 1.21313 16.501L0.154539 14.7158C-0.162751 14.1832 0.0242576 13.5014 0.571529 13.1924L2.86937 11.9014V10.0996L0.571529 8.80957L0.573482 8.80762C0.0287939 8.50028 -0.159458 7.82089 0.154539 7.28906L1.17895 5.5625C1.18984 5.5413 1.20134 5.5213 1.21313 5.50098L2.27269 3.71582L2.27367 3.7168C2.5895 3.18675 3.28769 3.00401 3.83421 3.30957L6.13108 4.60059L6.87326 4.18359C6.89244 4.17116 6.91275 4.15999 6.93283 4.14844L7.73361 3.69727V1.11816C7.73377 0.500944 8.24865 0 8.88204 0H13.1174ZM10.0305 4.33984C10.0304 4.78255 9.76662 5.16488 9.38399 5.3457L8.08029 6.07812C8.05948 6.08957 8.03851 6.10065 8.01681 6.11035L6.70139 6.85059C6.32974 7.05813 5.8894 7.04042 5.54612 6.8418L3.68382 5.7959L3.19652 6.61816C3.18462 6.63776 3.17229 6.65707 3.16039 6.67578L2.70922 7.43457L4.58714 8.49023C4.97423 8.70841 5.18108 9.11256 5.15745 9.51953V12.5459C5.15745 12.9575 4.92762 13.3165 4.58616 13.5098L4.58714 13.5107L2.71117 14.5654L3.19652 15.3828C3.20841 15.4042 3.21972 15.4248 3.2307 15.4453L3.68187 16.207L5.56174 15.1514C5.93248 14.9438 6.37283 14.9615 6.71701 15.1602L8.08029 15.9248V15.9238L9.45626 16.6963C9.82236 16.9029 10.0275 17.2764 10.0275 17.6611H10.0305V19.7656H11.9689V17.6611C11.969 17.2195 12.2329 16.837 12.6154 16.6553L13.9182 15.9238C13.9392 15.9123 13.9616 15.9004 13.9826 15.8906L15.299 15.1514C15.6698 14.9438 16.1101 14.9615 16.4543 15.1602L18.3175 16.207L18.8049 15.3848L18.8029 15.3828L19.2882 14.5654L17.4123 13.5107C17.0252 13.2925 16.8183 12.8884 16.842 12.4814V9.45508C16.842 9.04369 17.0711 8.68467 17.4123 8.49219V8.49023L19.2902 7.43457L18.8049 6.61719L18.8029 6.61816L18.3156 5.7959L16.4387 6.85059C16.067 7.05801 15.6266 7.04041 15.2834 6.8418L13.9201 6.07617L13.9182 6.07812L12.5432 5.30469C12.1762 5.09801 11.9718 4.72458 11.9709 4.33984H11.9689V2.23535H10.0305V4.33984ZM11.0002 7.20312C12.0775 7.20316 13.0532 7.62783 13.759 8.31543C14.4657 9.00227 14.9025 9.95246 14.9025 11.001C14.9024 12.0493 14.4656 12.9989 13.759 13.6865C13.0532 14.3732 12.0775 14.7978 11.0002 14.7979C9.92286 14.7979 8.94714 14.3732 8.24044 13.6865C7.53473 12.9989 7.09701 12.0493 7.09689 11.001C7.09689 9.95246 7.53464 9.00227 8.24044 8.31543C8.94714 7.62786 9.92287 7.20312 11.0002 7.20312ZM11.0002 9.43848C10.5564 9.43848 10.1555 9.61247 9.86446 9.89551C9.57426 10.1779 9.39473 10.5698 9.39473 11.001C9.39485 11.4329 9.57436 11.8233 9.86446 12.1064C10.1555 12.3886 10.5564 12.5635 11.0002 12.5635C11.4431 12.5634 11.8448 12.3886 12.135 12.1064C12.4251 11.8233 12.6055 11.4329 12.6057 11.001C12.6057 10.5698 12.4252 10.1779 12.135 9.89551C11.8448 9.61244 11.4431 9.43851 11.0002 9.43848Z" fill="currentColor"/>
</svg>
