<svg width="20" height="20" viewBox="0 0 20 20" fill="none" xmlns="http://www.w3.org/2000/svg">
<path fill-rule="evenodd" clip-rule="evenodd" d="M2.49958 0H17.5004C18.8754 0 20 1.12499 20 2.49958V17.5C20 18.875 18.8754 20 17.5004 20H2.49958C1.12499 20 0 18.875 0 17.5V2.49958C0 1.12499 1.12499 0 2.49958 0ZM3.60792 9.24149C7.18292 7.68899 9.56339 6.65707 10.7585 6.15668C14.1601 4.73683 14.8752 4.49173 15.3349 4.48154C15.437 4.48154 15.6619 4.50192 15.8149 4.62437C15.9377 4.72664 15.9683 4.85947 15.9885 4.96155C16.0091 5.06382 16.0296 5.27816 16.0091 5.44137C15.8253 7.38257 15.0283 12.0916 14.6198 14.2573C14.4462 15.1766 14.109 15.4828 13.7822 15.5138C13.0669 15.5749 12.5257 15.0437 11.8414 14.5941C10.7585 13.8896 10.1559 13.4503 9.10356 12.7554C7.88825 11.9587 8.67468 11.5195 9.36923 10.8046C9.553 10.6208 12.6893 7.7605 12.7503 7.50483C12.7608 7.47426 12.7608 7.35181 12.6893 7.29049C12.6174 7.22916 12.5154 7.24973 12.4339 7.26991C12.3214 7.29049 10.6053 8.43468 7.26482 10.6921C6.77462 11.0293 6.33536 11.1929 5.93685 11.1825C5.4976 11.1723 4.65983 10.9374 4.0268 10.733C3.26074 10.4879 2.64751 10.3549 2.69864 9.92584C2.7294 9.70132 3.03583 9.4764 3.60792 9.24149Z" fill="#3B9702"/>
</svg>
