<svg
  width="18"
  height="18"
  viewBox="0 0 18 18"
  fill="none"
  xmlns="http://www.w3.org/2000/svg"
  className="status-icon"
>
  <path
    d="M14.9478 3.05215L15.8043 3.90857L15.9655 3.74738L16.1604 3.55232L14.4477 1.83962L14.2968 1.99051L14.0914 2.19573L14.9478 3.05215ZM1.51863 16.4814L3.23202 16.4808L12.6643 7.0485L10.9515 5.33566L1.51918 14.768L1.51863 16.4814ZM3.55065 17.9989L0 18L0.00139459 14.1307L10.9515 3.18047L14.8197 7.0485L3.86928 17.9986L3.55065 17.9989ZM16.343 5.525L15.8043 6.06376L15.2655 5.525L12.475 2.7345L11.9362 2.19573L12.475 1.65697L13.4405 0.691461L13.9088 0.223196C14.2064 -0.0743986 14.6888 -0.0743986 14.9864 0.223196L17.7768 3.01356C18.0744 3.31116 18.0744 3.79363 17.7768 4.09123L17.2819 4.5861L16.343 5.525Z"
    fill="currentColor"
  />
</svg>
