<svg xmlns="http://www.w3.org/2000/svg" xmlns:xlink="http://www.w3.org/1999/xlink" version="1.1" width="356" height="356" viewBox="0 0 256 256" xml:space="preserve">
<g style="stroke: none; stroke-width: 0; stroke-dasharray: none; stroke-linecap: butt; stroke-linejoin: miter; stroke-miterlimit: 10; fill: none; fill-rule: nonzero; opacity: 1;" transform="translate(1.4065934065934016 1.4065934065934016) scale(2.81 2.81)">
	<circle cx="45" cy="45" r="45" style="stroke: none; stroke-width: 1; stroke-dasharray: none; stroke-linecap: butt; stroke-linejoin: miter; stroke-miterlimit: 10; fill: rgb(75,174,79); fill-rule: nonzero; opacity: 1;" transform="  matrix(1 0 0 1 0 0) "/>
	<path d="M 22.608 69.5 c -0.527 0 -1.041 -0.209 -1.422 -0.594 c -0.502 -0.508 -0.696 -1.245 -0.507 -1.935 l 2.949 -10.77 c -1.857 -3.498 -2.834 -7.424 -2.833 -11.406 C 20.8 31.399 31.701 20.5 45.094 20.5 c 6.498 0.002 12.603 2.533 17.189 7.126 c 4.587 4.592 7.111 10.697 7.109 17.189 c -0.005 13.398 -10.905 24.298 -24.299 24.298 c -3.79 -0.001 -7.541 -0.892 -10.906 -2.583 l -11.072 2.904 C 22.948 69.479 22.777 69.5 22.608 69.5 z M 34.429 62.399 c 0.332 0 0.662 0.083 0.958 0.244 c 2.961 1.615 6.314 2.469 9.699 2.47 c 11.197 0 20.302 -9.106 20.307 -20.3 c 0.002 -5.424 -2.107 -10.524 -5.939 -14.36 c -3.832 -3.837 -8.932 -5.951 -14.36 -5.953 c -11.188 0 -20.293 9.105 -20.298 20.298 c -0.001 3.565 0.936 7.075 2.709 10.147 c 0.267 0.463 0.337 1.013 0.197 1.528 l -2.249 8.213 l 8.47 -2.222 C 34.088 62.421 34.259 62.399 34.429 62.399 z" style="stroke: none; stroke-width: 1; stroke-dasharray: none; stroke-linecap: butt; stroke-linejoin: miter; stroke-miterlimit: 10; fill: rgb(255,255,255); fill-rule: nonzero; opacity: 1;" transform=" matrix(1 0 0 1 0 0) " stroke-linecap="round"/>
	<path d="M 36.375 45.246 c -0.285 -0.38 -2.325 -3.088 -2.325 -5.891 c 0 -2.803 1.471 -4.181 1.993 -4.751 c 0.522 -0.57 1.139 -0.712 1.519 -0.712 c 0.38 0 0.76 0.004 1.092 0.02 c 0.35 0.018 0.819 -0.133 1.281 0.978 c 0.475 1.14 1.613 3.944 1.756 4.229 c 0.143 0.285 0.237 0.617 0.048 0.998 c -0.19 0.38 -0.285 0.617 -0.569 0.95 c -0.285 0.333 -0.598 0.743 -0.855 0.998 c -0.285 0.284 -0.582 0.592 -0.25 1.162 c 0.332 0.57 1.475 2.435 3.168 3.946 c 2.175 1.941 4.01 2.542 4.58 2.827 c 0.569 0.285 0.902 0.238 1.234 -0.143 c 0.332 -0.38 1.424 -1.663 1.804 -2.233 c 0.38 -0.57 0.759 -0.475 1.281 -0.285 c 0.522 0.19 3.322 1.568 3.891 1.853 c 0.569 0.285 0.949 0.428 1.092 0.665 c 0.143 0.238 0.143 1.378 -0.332 2.708 c -0.475 1.33 -2.75 2.545 -3.844 2.708 c -0.981 0.147 -2.223 0.208 -3.587 -0.226 c -0.827 -0.262 -1.888 -0.613 -3.247 -1.2 C 40.391 51.379 36.661 45.626 36.375 45.246 z" style="stroke: none; stroke-width: 1; stroke-dasharray: none; stroke-linecap: butt; stroke-linejoin: miter; stroke-miterlimit: 10; fill: rgb(255,255,255); fill-rule: nonzero; opacity: 1;" transform=" matrix(1 0 0 1 0 0) " stroke-linecap="round"/>
</g>
</svg>