<svg width="16" height="16" viewBox="0 0 16 16" fill="none" xmlns="http://www.w3.org/2000/svg">
<path d="M8.04692 2.80095e-06C10.11 0.0120947 12.0885 0.81355 13.5695 2.23707C15.0504 3.66058 15.9192 5.59633 15.9945 7.63971C16.0338 8.68571 15.8635 9.72921 15.4937 10.7097C15.1239 11.6903 14.5618 12.5886 13.8398 13.3526C13.118 14.1167 12.2506 14.7315 11.2876 15.1616C10.3246 15.5916 9.28528 15.8285 8.22953 15.8583H8.00071C6.80053 15.8587 5.61564 15.5916 4.53367 15.0768L0.346006 16H0.333853C0.325113 15.9998 0.316353 15.998 0.308367 15.9944C0.300463 15.9907 0.293359 15.9855 0.287638 15.9791C0.281996 15.9724 0.277695 15.9648 0.275069 15.9565C0.272626 15.948 0.27179 15.9393 0.272985 15.9307L0.980622 11.7345C0.314291 10.5263 -0.0233053 9.16705 0.00125001 7.7903C0.0258847 6.4135 0.411707 5.06679 1.12093 3.88276C1.83014 2.69869 2.83787 1.71806 4.04551 1.03713C5.25305 0.356428 6.61872 -0.00115464 8.00807 2.80095e-06H8.04692ZM7.8181 1.37837C6.66959 1.41063 5.54934 1.739 4.5678 2.33101C3.58632 2.92285 2.77727 3.75802 2.22038 4.75419C1.66351 5.75013 1.37822 6.87292 1.39222 8.01162C1.40624 9.15029 1.71928 10.2658 2.30076 11.2479L2.42235 11.4523L1.89822 14.3L4.73804 13.6347L4.95221 13.7458C5.89428 14.229 6.93986 14.4805 8.00071 14.4792H8.1897L8.19696 14.4816C9.93018 14.4282 11.5729 13.7016 12.7711 12.4591C13.969 11.2166 14.6267 9.55747 14.6023 7.83907C14.5777 6.12063 13.8732 4.48043 12.6401 3.27199C11.4072 2.0633 9.74456 1.38341 8.01046 1.37837H7.8181ZM5.23613 4.09881C5.36997 4.10286 5.50378 4.10691 5.62071 4.11495C5.76269 4.12542 5.925 4.13678 6.06123 4.47839C6.2292 4.87815 6.587 5.87451 6.63502 5.97591C6.66511 6.02891 6.68114 6.08857 6.6822 6.14966C6.68322 6.21051 6.66894 6.27084 6.64064 6.32483C6.58599 6.44136 6.51478 6.54963 6.42957 6.6466C6.32588 6.76009 6.21784 6.89104 6.11717 6.98602C6.01668 7.08077 5.9063 7.18535 6.01669 7.38794C6.30205 7.91 6.66429 8.38736 7.09099 8.80423C7.54755 9.24725 8.0841 9.60204 8.67223 9.84955C8.74041 9.88487 8.81547 9.90501 8.89213 9.90826C8.9338 9.90761 8.97487 9.89813 9.01272 9.88083C9.05036 9.86325 9.08393 9.83808 9.1114 9.80701C9.23627 9.68145 9.60866 9.24647 9.77091 9.04609C9.79617 9.00518 9.83131 8.97072 9.87303 8.94612C9.9147 8.92132 9.9619 8.90719 10.0103 8.90458C10.0848 8.91005 10.1576 8.92902 10.2253 8.96026C10.4079 9.03258 11.379 9.54722 11.5772 9.65022C11.775 9.75299 11.9066 9.81108 11.9544 9.8915C12.0022 9.97198 11.99 10.3739 11.8084 10.8338C11.6266 11.2939 10.7933 11.717 10.4242 11.7393C10.3146 11.7458 10.2101 11.7603 10.0711 11.7603C9.73453 11.7603 9.21507 11.6734 8.0306 11.1677C6.01504 10.3096 4.79151 8.19384 4.69492 8.05776C4.59831 7.92189 3.90782 6.95294 3.93874 5.9735C3.96946 4.99389 4.50255 4.52763 4.69329 4.33372C4.76084 4.26217 4.84217 4.20465 4.93249 4.16471C5.02278 4.12486 5.1202 4.10327 5.21905 4.10129V4.09881H5.23613Z" fill="#25D366"/>
</svg>
