<svg width="20" height="20" viewBox="0 0 20 20" fill="none" xmlns="http://www.w3.org/2000/svg">
<path fill-rule="evenodd" clip-rule="evenodd" d="M2.49969 0H17.5003C18.8751 0 20 1.12492 20 2.49969V17.5003C20 18.8751 18.8751 20 17.5003 20H2.49969C1.12492 20 0 18.8751 0 17.5003V2.49969C0 1.12492 1.12492 0 2.49969 0ZM6.61896 8.29755C6.59259 9.1199 7.16761 9.93471 7.24796 10.049C7.32831 10.1632 8.34777 11.9397 10.0251 12.6616C11.0119 13.086 11.4438 13.1588 11.7238 13.1588C11.8406 13.1588 11.9272 13.1463 12.0188 13.1412C12.3252 13.1224 13.0195 12.7671 13.1714 12.3804C13.322 11.9937 13.3321 11.656 13.2919 11.5895C13.253 11.5217 13.1438 11.4727 12.978 11.3861C12.8136 11.2994 12.005 10.8675 11.8531 10.8073C11.7966 10.7809 11.7351 10.7646 11.6736 10.7596C11.6334 10.7621 11.5945 10.7734 11.5593 10.7947C11.5254 10.8161 11.4953 10.8449 11.4752 10.8788C11.3396 11.0471 11.0295 11.4124 10.9253 11.5179C10.9027 11.5443 10.8751 11.5656 10.8437 11.5794C10.811 11.5945 10.7772 11.602 10.7433 11.6033C10.6792 11.6008 10.6164 11.5832 10.5599 11.5543C10.0703 11.3459 9.62335 11.0483 9.24294 10.6755C8.88763 10.3252 8.58632 9.92467 8.34903 9.48525C8.25612 9.31576 8.34903 9.22787 8.43189 9.14878C8.51601 9.06843 8.6064 8.95794 8.69178 8.86252C8.76334 8.78092 8.82235 8.69052 8.86755 8.59259C8.8914 8.54739 8.90396 8.49718 8.9027 8.4457C8.90144 8.39423 8.88889 8.34401 8.86378 8.30006C8.73321 7.99498 8.42687 6.99058 8.24105 6.82109C8.08412 6.67671 7.58192 6.69429 7.38104 6.8123C7.11237 6.96799 6.81356 7.43126 6.71814 7.71626C6.65035 7.92216 6.63151 8.08286 6.61896 8.29755ZM16.6566 9.69743C16.5938 7.98117 15.8707 6.35405 14.6378 5.15882C13.4036 3.96234 11.7564 3.28939 10.0389 3.27935H10.0063C8.84997 3.27809 7.71249 3.57941 6.7081 4.15066C5.70245 4.72191 4.86252 5.54677 4.27244 6.54112C3.68236 7.53547 3.36095 8.66667 3.34087 9.82423C3.31952 10.9805 3.60075 12.1218 4.15568 13.1375L3.56686 16.6616C3.5656 16.6692 3.5656 16.6767 3.56811 16.6842C3.57062 16.6905 3.57439 16.6981 3.57815 16.7031C3.58318 16.7081 3.58945 16.7131 3.59573 16.7156C3.60201 16.7194 3.60954 16.7207 3.61707 16.7207H3.62712L7.11362 15.9448C8.01507 16.3779 9.00063 16.6026 10 16.6014C10.064 16.6014 10.1281 16.6014 10.1908 16.6014C11.0697 16.5763 11.936 16.3779 12.737 16.0163C13.5392 15.6547 14.2611 15.1387 14.8625 14.4972C15.4639 13.8544 15.9322 13.0998 16.2398 12.2762C16.5474 11.4526 16.6893 10.5763 16.6566 9.69743ZM15.4601 9.30069C15.4815 9.48776 15.494 9.67483 15.4978 9.86566C15.5179 11.3082 14.9692 12.7018 13.9724 13.7464C12.9755 14.7897 11.607 15.3999 10.1645 15.4451L10.1582 15.4426C10.1055 15.4426 10.0527 15.4426 10 15.4426C9.11739 15.4438 8.24733 15.2329 7.46265 14.8274L7.28437 14.7332L4.91902 15.2919L5.35593 12.9002L5.25424 12.7282C4.77087 11.9033 4.50973 10.9667 4.49843 10.01C4.48713 9.05336 4.72442 8.10923 5.1877 7.27307C5.65223 6.43691 6.32517 5.73509 7.1425 5.23792C7.95982 4.74074 8.89266 4.46453 9.84809 4.43691C9.90207 4.43691 9.9548 4.43691 10.0088 4.43691C11.4526 4.44193 12.8374 5.01318 13.8632 6.02888C14.752 6.90647 15.3145 8.06026 15.4601 9.30069Z" fill="#3B9702"/>
</svg>
