<svg width="20" height="20" viewBox="0 0 20 20" fill="none" xmlns="http://www.w3.org/2000/svg">
<path fill-rule="evenodd" clip-rule="evenodd" d="M2.50007 0H17.4999C18.8749 0 20 1.12506 20 2.49952V17.4999C20 18.8744 18.8749 19.9994 17.4999 19.9994H2.50007C1.12506 19.9994 0 18.8744 0 17.4999V2.49952C0 1.12506 1.12506 0 2.50007 0ZM8.62582 12.0589L12.1919 10.0003L8.62582 7.94107V12.0589ZM16.5768 6.69573C16.4185 6.10478 15.9539 5.64019 15.3629 5.48183C14.293 5.19491 9.99972 5.19491 9.99972 5.19491C9.99972 5.19491 5.70695 5.19491 4.63652 5.48183C4.04558 5.64019 3.58099 6.10478 3.42263 6.69573C3.13571 7.76561 3.13571 9.99972 3.13571 9.99972C3.13571 9.99972 3.13571 12.2344 3.42263 13.3043C3.58099 13.8952 4.04558 14.3598 4.63652 14.5176C5.70695 14.8045 9.99972 14.8045 9.99972 14.8045C9.99972 14.8045 14.293 14.8045 15.3629 14.5176C15.9539 14.3598 16.4185 13.8952 16.5768 13.3043C16.8637 12.2344 16.8637 9.99972 16.8637 9.99972C16.8637 9.99972 16.8626 7.76561 16.5768 6.69573Z" fill="#3B9702"/>
</svg>
